<?xml version="1.0" encoding="utf-8"?>
<!-- Generator: Adobe Illustrator 21.0.0, SVG Export Plug-In . SVG Version: 6.00 Build 0)  -->
<svg version="1.1" id="Layer_1" xmlns="http://www.w3.org/2000/svg" xmlns:xlink="http://www.w3.org/1999/xlink" x="0px" y="0px"
	 viewBox="0 0 1792 1792" style="enable-background:new 0 0 1792 1792;" xml:space="preserve">
<style type="text/css">
	.st0{fill:#04585C;}
</style>
<path class="st0" d="M1579,128c23.3,0,43.3,8.3,60,25s25,36.7,25,60v1366c0,23.3-8.3,43.3-25,60s-36.7,25-60,25h-391v-595h199
	l30-232h-229V689c0-37.3,7.8-65.3,23.5-84s46.2-28,91.5-28l122-1V369c-42-6-101.3-9-178-9c-90.7,0-163.2,26.7-217.5,80
	C975.2,493.3,948,568.7,948,666v171H748v232h200v595H213c-23.3,0-43.3-8.3-60-25s-25-36.7-25-60V213c0-23.3,8.3-43.3,25-60
	s36.7-25,60-25H1579z"/>
</svg>
