<?xml version="1.0" encoding="utf-8"?>
<!-- Generator: Adobe Illustrator 21.0.0, SVG Export Plug-In . SVG Version: 6.00 Build 0)  -->
<svg version="1.1" id="Layer_1" xmlns="http://www.w3.org/2000/svg" xmlns:xlink="http://www.w3.org/1999/xlink" x="0px" y="0px"
	 viewBox="0 0 512 512" style="enable-background:new 0 0 512 512;" xml:space="preserve">
<style type="text/css">
	.st0{fill:#3CD1B8;}
</style>
<path class="st0" d="M457.6,25.6H54.4c-15.9,0-28.8,12.9-28.8,28.8v403.2c0,15.9,12.9,28.8,28.8,28.8h403.2
	c15.9,0,28.8-12.9,28.8-28.8V54.4C486.4,38.5,473.5,25.6,457.6,25.6z M198.4,256c0,0,4.6-57.6,57.6-57.6s57.6,57.6,57.6,57.6
	s1.6,57.6-57.6,57.6S198.4,256,198.4,256z M428.8,428.8H83.2V227.2h57.6h4.1c-2.4,9.3-4.1,18.8-4.1,28.8
	c0,63.6,51.6,115.2,115.2,115.2S371.2,319.6,371.2,256c0-10-1.7-19.5-4.1-28.8h4.1h57.6V428.8z M428.8,169.6h-86.4V83.2h86.4V169.6z
	"/>
</svg>
